#N canvas 539 203 642 310 10;
#X msg 32 139 close;
#X msg 65 182 ports;
#X obj 32 209 comport 1 9600;
#X obj 32 110 loadbang;
#X obj 127 259 print;
#X obj 127 237 route ports;
#X msg 53 160 open 3;
#X obj 205 157 hradio 15 1 0 9 empty empty empty 0 -8 0 10 -262144
-1 -1 8;
#X floatatom 205 177 5 0 0 0 - - -, f 5;
#X obj 205 27 tgl 15 0 empty empty empty 17 7 0 10 -262144 -1 -1 0
1;
#X obj 205 47 metro 1000;
#X obj 205 69 f;
#X obj 245 69 + 1;
#X floatatom 205 91 5 0 0 0 - - -, f 5;
#X obj 205 110 mod 9;
#X floatatom 205 132 5 0 0 0 - - -, f 5;
#X obj 421 155 hsl 128 15 0 45 0 0 empty empty empty -2 -8 0 10 -262144
-1 -1 12700 1;
#X floatatom 418 175 5 0 0 0 - - -, f 5;
#X msg 418 53 0;
#X obj 418 118 f;
#X msg 458 53 10;
#X msg 498 53 20;
#X msg 538 53 30;
#X msg 578 53 40;
#X msg 418 83 5;
#X msg 458 83 15;
#X msg 498 83 25;
#X msg 538 83 35;
#X msg 578 83 45;
#X connect 0 0 2 0;
#X connect 1 0 2 0;
#X connect 2 1 5 0;
#X connect 3 0 0 0;
#X connect 5 0 4 0;
#X connect 6 0 2 0;
#X connect 7 0 8 0;
#X connect 8 0 2 0;
#X connect 9 0 10 0;
#X connect 10 0 11 0;
#X connect 11 0 13 0;
#X connect 12 0 11 1;
#X connect 13 0 14 0;
#X connect 14 0 12 0;
#X connect 14 0 15 0;
#X connect 15 0 7 0;
#X connect 16 0 17 0;
#X connect 17 0 2 0;
#X connect 18 0 19 0;
#X connect 19 0 16 0;
#X connect 20 0 19 0;
#X connect 21 0 19 0;
#X connect 22 0 19 0;
#X connect 23 0 19 0;
#X connect 24 0 19 0;
#X connect 25 0 19 0;
#X connect 26 0 19 0;
#X connect 27 0 19 0;
#X connect 28 0 19 0;
