#N canvas 746 274 450 300 10;
#X msg 92 79 close;
#X msg 125 122 ports;
#X obj 92 149 comport 1 9600;
#X obj 92 50 loadbang;
#X obj 29 20 hsl 128 15 0 99 0 0 empty empty empty -2 -8 0 10 -262144
-1 -1 0 1;
#X floatatom 26 40 5 0 0 0 - - -, f 5;
#X obj 187 199 print;
#X obj 187 177 route ports;
#X msg 113 100 open 3;
#X obj 265 87 hradio 15 1 0 9 empty empty empty 0 -8 0 10 -262144 -1
-1 2;
#X floatatom 265 107 5 0 0 0 - - -, f 5;
#X connect 0 0 2 0;
#X connect 1 0 2 0;
#X connect 2 1 7 0;
#X connect 3 0 0 0;
#X connect 4 0 5 0;
#X connect 5 0 2 0;
#X connect 7 0 6 0;
#X connect 8 0 2 0;
#X connect 9 0 10 0;
#X connect 10 0 2 0;
